<?xml version="1.0" encoding="UTF-8"?> <svg xmlns="http://www.w3.org/2000/svg" width="448" height="223" viewBox="0 0 448 223" fill="none"><path d="M432.649 56.5794L15.0547 60.2461L15.9827 165.932L433.577 162.265L432.649 56.5794Z" fill="white"></path><path d="M39.0833 89.3998C42.8651 88.8479 45.4833 85.3349 44.9314 81.5531C44.3795 77.7714 40.8664 75.1529 37.0847 75.7048C33.3029 76.2567 30.6847 79.77 31.2366 83.5517C31.7885 87.3335 35.3016 89.9517 39.0833 89.3998Z" fill="#EDEDED"></path><path d="M411.091 86.1342C414.873 85.5823 417.491 82.0693 416.939 78.2875C416.387 74.5058 412.874 71.8873 409.093 72.4392C405.311 72.9911 402.693 76.5044 403.244 80.2861C403.796 84.0679 407.309 86.6861 411.091 86.1342Z" fill="#EDEDED"></path><path d="M39.6141 149.958C43.3958 149.406 46.0141 145.893 45.4622 142.111C44.9103 138.329 41.3972 135.711 37.6154 136.263C33.8337 136.815 31.215 140.328 31.7669 144.11C32.3188 147.892 35.8323 150.51 39.6141 149.958Z" fill="#EDEDED"></path><path d="M411.63 146.681C415.412 146.129 418.03 142.616 417.478 138.834C416.926 135.053 413.413 132.434 409.632 132.986C405.85 133.538 403.232 137.051 403.784 140.833C404.335 144.615 407.848 147.233 411.63 146.681Z" fill="#EDEDED"></path><path d="M245.878 130.79L225.168 130.973L224.821 91.4086L243.028 91.2475C251.264 91.1774 255.777 96.269 255.835 102.344C255.859 105.069 254.509 107.874 252.424 109.997C255.54 111.614 258.239 115.283 258.276 119.138C258.336 125.92 253.087 130.739 245.89 130.799L245.878 130.79ZM234.877 122.927L244.476 122.84C246.847 122.817 248.389 121.056 248.367 118.896L248.358 118.837C248.348 116.686 246.77 114.946 244.408 114.967L234.81 115.054L234.877 122.927ZM234.739 107.091L241.895 107.027C244.459 107.006 245.97 105.239 245.948 103.08C245.927 100.93 244.481 99.191 241.826 99.2146L234.67 99.2787L234.739 107.091Z" fill="#2DBE64"></path><path d="M135.785 131.759L121.362 111.661L135.004 92.197L123.498 92.2998L112.656 108.242L112.517 92.3966L102.504 92.4833L102.851 132.048L112.864 131.961L112.717 115.722L123.886 131.868L135.785 131.759Z" fill="#2DBE64"></path><path d="M315.283 90.6064L315.545 119.885C315.554 121.198 314.984 122.211 313.754 122.229C312.017 122.24 311.921 120.263 311.912 118.95L302.516 119.038C302.573 125.386 306.262 131.276 314.113 131.201C320.947 131.144 325.597 125.543 325.54 118.71L325.375 99.4417L338.91 99.3257L339.181 129.988L349.194 129.901L348.846 90.3367L315.298 90.6344L315.283 90.6064Z" fill="#2DBE64"></path><path d="M180.431 91.7926L166.835 121.133C164.315 126.716 159.083 132.553 150.091 132.632C142.43 132.699 135.191 128.106 133.819 117.877L143.529 117.794C144.287 121.877 147.217 123.673 150.466 123.644C153.252 123.621 155.11 121.945 155.619 121.002L138.86 92.1696L150.375 92.0656L161.03 111.127L169.501 91.892L180.431 91.7926Z" fill="#2DBE64"></path><path d="M85.0675 132.208L58.4216 132.438L58.0746 92.8734L82.2174 92.6648C90.4536 92.5947 94.9665 97.6864 95.0245 103.762C95.0483 106.487 93.6986 109.291 91.6134 111.414C94.7295 113.031 97.4279 116.7 97.465 120.555C97.525 127.338 92.2759 132.156 85.0791 132.216L85.0675 132.208ZM68.1217 124.393L83.6649 124.257C86.0365 124.234 87.5782 122.473 87.5562 120.314L87.5475 120.254C87.5368 118.103 85.9588 116.363 83.5971 116.384L68.054 116.52L68.1217 124.393ZM67.9833 108.557L81.0843 108.444C83.6482 108.423 85.159 106.657 85.1369 104.497C85.1163 102.348 83.6699 100.608 81.0155 100.632L67.9145 100.745L67.9833 108.557Z" fill="#2DBE64"></path><path d="M209.336 116.255C207.825 119.891 204.545 122.482 199.932 122.519C193.423 122.58 189.45 117.52 189.402 111.514L189.399 111.494C189.35 105.479 193.221 100.356 199.742 100.304C204.375 100.264 207.717 102.808 209.278 106.441L220.047 106.344C217.95 97.3026 210.291 90.5276 199.664 90.6233C187.189 90.7359 178.961 100.213 179.065 111.588L179.068 111.608C179.162 122.983 187.558 132.318 200.032 132.206C210.65 132.112 218.184 125.221 220.136 116.165L209.357 116.262L209.336 116.255Z" fill="#2DBE64"></path><path d="M290.495 90.8286L273.986 113.844L273.791 90.9723L263.779 91.059L264.127 130.634L273.262 130.554L289.764 107.56L289.964 130.4L299.977 130.313L299.63 90.7486L290.495 90.8286Z" fill="#2DBE64"></path><path d="M360.147 90.2138L360.384 116.97C360.401 119.444 359 120.921 356.477 120.946L353.529 120.972L353.61 129.833L358.919 129.786C365.884 129.73 370.471 125.291 370.407 117.235L370.246 99.0278L380.369 98.9351L380.639 129.597L390.651 129.511L390.304 89.9461L360.157 90.2124L360.147 90.2138Z" fill="#2DBE64"></path></svg> 