<?xml version="1.0" encoding="UTF-8"?> <svg xmlns="http://www.w3.org/2000/svg" width="42" height="23" viewBox="0 0 42 23" fill="none"><path d="M0.6 0.599998H7.192C11.032 0.599998 14.04 3.16 14.04 7C14.04 8.6 13.528 10.008 12.632 11.064C14.104 12.248 14.936 14.04 14.936 16.28C14.936 20.312 12.248 23 7.864 23H0.6V0.599998ZM7.192 4.44H4.76V9.56H7.192C8.728 9.56 9.88 8.536 9.88 7C9.88 5.464 8.728 4.44 7.192 4.44ZM7.864 19.16C9.624 19.16 10.776 17.976 10.776 16.248C10.776 14.552 9.624 13.4 7.864 13.4H4.76V19.16H7.864ZM17.8188 23V0.599998H34.0108C37.8508 0.599998 40.8588 3.16 40.8588 7C40.8588 8.6 40.3468 10.008 39.4508 11.064C40.9228 12.248 41.7548 14.072 41.7548 16.312C41.7548 20.312 39.0668 23 34.6828 23H17.8188ZM34.0108 4.44H21.9788V9.56H34.0108C35.5468 9.56 36.6988 8.536 36.6988 7C36.6988 5.464 35.5468 4.44 34.0108 4.44ZM34.6828 19.16C36.4428 19.16 37.5948 18.008 37.5948 16.248C37.5948 14.552 36.4428 13.4 34.6828 13.4H21.9788V19.16H34.6828Z" fill="white"></path></svg> 